<svg xmlns="http://www.w3.org/2000/svg" width="40" height="41" viewBox="0 0 40 41">
    <g fill="none" fill-rule="evenodd" opacity=".7">
        <g fill="#FFF" class="fill-hover">
            <g>
                <g>
                    <g>
                        <path d="M29.16 28.213c0 .566-.46 1.025-1.026 1.025h-4.737v-7.197h2.416l.362-2.806h-2.778v-1.79c0-.813.226-1.367 1.39-1.367h1.486v-2.51c-.257-.034-1.139-.11-2.165-.11-2.141 0-3.608 1.308-3.608 3.708v2.069h-2.422v2.806H20.5v7.197h-8.903c-.566 0-1.025-.459-1.025-1.025V11.676c0-.566.459-1.025 1.025-1.025h16.537c.566 0 1.025.459 1.025 1.025v16.537" transform="translate(-658 -5780) translate(-17 5081) translate(675 699)"/>
                    </g>
                </g>
            </g>
        </g>
    </g>
</svg>
