<svg xmlns="http://www.w3.org/2000/svg" width="41" height="40" viewBox="0 0 41 40">
    <g fill="none" fill-rule="evenodd" opacity=".7">
        <g fill="#FFF">
            <g>
                <g>
                    <g>
                        <g>
                            <path d="M25.584 13.175c-.685 0-1.24.554-1.24 1.24 0 .686.555 1.242 1.24 1.242.685 0 1.241-.556 1.241-1.241 0-.687-.556-1.241-1.241-1.241m-8.686 7.134c0-1.881 1.53-3.411 3.412-3.411s3.413 1.53 3.413 3.411c0 1.883-1.531 3.414-3.413 3.414-1.881 0-3.412-1.531-3.412-3.414zm-2.482 0c0 3.251 2.644 5.896 5.894 5.896s5.895-2.645 5.895-5.895c0-3.25-2.644-5.894-5.895-5.894-3.25 0-5.894 2.644-5.894 5.894zm16.741-3.198c-.009-1.037-.019-2.11-.297-3.2-.681-2.665-2.482-4.344-5.205-4.853-.495-.094-.976-.122-1.443-.15-.2-.01-.391-.023-.58-.04-.056-.01-.084-.016-.113-.02l-.09-.017h-6.803c-.107.008-.177.013-.245.02-.138.01-.268.022-.39.027-.891.036-2.057.14-3.17.621-1.916.829-3.151 2.307-3.675 4.394-.211.84-.254 1.663-.28 2.5l-.019.092-.016.09v6.806l.02.245c.012.138.022.267.027.39.036.91.145 2.1.65 3.238.832 1.87 2.294 3.084 4.344 3.604.949.242 1.897.278 2.618.284l.873.007c1.303.009 2.649.02 3.975.02.53 0 1.017-.002 1.494-.005 1.064-.007 2.154-.014 3.262-.299 2.665-.682 4.341-2.476 4.846-5.188.16-.86.192-1.742.203-2.492.028-1.963.034-3.979.015-5.992v-.082z" transform="translate(-861 -6360) translate(-17 5661) translate(390.5 116) translate(324.5 583) translate(163.333)"/>
                        </g>
                    </g>
                </g>
            </g>
        </g>
    </g>
</svg>
