<svg xmlns="http://www.w3.org/2000/svg" width="41" height="41" viewBox="0 0 41 41">
    <g fill="none" fill-rule="evenodd" opacity=".7">
        <g fill="#FFF">
            <g>
                <g>
                    <g>
                        <path d="M94.74 12.585c-.753.457-1.585.789-2.473.966-.708-.774-1.72-1.258-2.84-1.258-2.146 0-3.889 1.786-3.889 3.989 0 .312.034.616.1.908-3.233-.166-6.1-1.753-8.02-4.17-.334.592-.526 1.278-.526 2.008 0 1.384.687 2.605 1.731 3.32-.637-.018-1.238-.2-1.763-.497v.05c0 1.933 1.341 3.546 3.122 3.911-.326.094-.67.14-1.025.14-.25 0-.495-.023-.732-.07.495 1.584 1.93 2.738 3.634 2.769-1.331 1.07-3.01 1.708-4.832 1.708-.314 0-.624-.018-.928-.054 1.721 1.13 3.767 1.79 5.964 1.79 7.157 0 11.07-6.077 11.07-11.35 0-.173-.004-.347-.01-.517.76-.563 1.42-1.264 1.94-2.064-.697.317-1.448.531-2.235.627.804-.493 1.42-1.275 1.711-2.206" transform="translate(-739 -5780) translate(-17 5081) translate(675 699) translate(15.667)"/>
                    </g>
                </g>
            </g>
        </g>
    </g>
</svg>
